rec1_001.mot
nRows=22
nColumns=19

name rec1_001.mot
datacolumns 19
datarows 22
range 5.0000387182 5.2100400221
endheader
time	ground_force_vx	ground_force_vy	ground_force_vz	ground_force_px	ground_force_py	ground_force_pz	1_ground_force_vx	1_ground_force_vy	1_ground_force_vz	1_ground_force_px	1_ground_force_py	1_ground_force_pz	ground_torque_x	ground_torque_y	ground_torque_z	1_ground_torque_x	1_ground_torque_y	1_ground_torque_z	
        5.0000387182	      100.3117709246	      692.6982479692	      -47.4856575644	        0.1273749521	       -0.0180000000	        0.0888514567	       10.8267188550	      251.6502381554	       -8.4102834899	        0.5014461977	       -0.0180000000	       -0.1173745501	      344.2898809713	      -14.3238640378	      564.1533997035	     -111.9850311070	       16.2698546260	      302.6045788918	
        5.0100385937	      109.2978262262	      704.4174899095	      -42.8415917289	        0.1197865795	       -0.0180000000	        0.0878758752	        0.8791388942	      340.6934076636	      -16.0604225610	        0.5402566680	       -0.0180000000	       -0.1104944039	      335.4596009725	      -20.0868105701	      541.9725799251	     -152.3183985264	       21.3610065029	      408.7239601315	
        5.0200388691	      117.9043181141	      715.2824392889	      -37.2382514890	        0.1119389704	       -0.0180000000	        0.0869497802	      -17.0568706277	      415.7620684281	      -22.1885546700	        0.5307619977	       -0.0180000000	       -0.1090793973	      322.3700421667	      -26.2798443120	      513.3167369642	     -186.4007885232	       21.3489414475	      497.6969049278	
        5.0300387045	      125.6145973232	      724.3758517865	      -31.7006997500	        0.1037927410	       -0.0180000000	        0.0861465579	      -37.1264395721	      469.9332095161	      -24.6180904260	        0.5041743312	       -0.0180000000	       -0.1106718928	      304.2421969197	      -31.8892602247	      477.3129904053	     -210.8777570732	       15.9177236949	      561.1853535002	
        5.0400392199	      131.2571235231	      730.5703562313	      -26.7168542583	        0.0953303279	       -0.0180000000	        0.0855427108	      -53.1657812078	      504.3981269747	      -21.6230834814	        0.4830911535	       -0.0180000000	       -0.1130092271	      279.8685391482	      -36.0865154455	      432.5060730438	     -226.0456188455	        5.4513679681	      600.2623202261	
        5.0500388953	      132.7616232695	      732.5882068601	      -21.6796503453	        0.0865497287	       -0.0180000000	        0.0851637323	      -62.4450556401	      522.7433518066	      -12.9634762829	        0.4738510368	       -0.0180000000	       -0.1149838197	      248.7724485845	      -38.5422742151	      378.7025898759	     -233.4733567512	       -9.0011140291	      619.0649565302	
        5.0600391707	      127.6126231299	      729.0531959723	      -15.5051406601	        0.0774569381	       -0.0180000000	        0.0849978873	      -66.0907602620	      528.1154294839	       -1.0668663861	        0.4717154168	       -0.0180000000	       -0.1165340281	      212.1233641496	      -39.2727613650	      318.2141254767	     -234.7371297716	      -24.8418517885	      621.5462198165	
        5.0700391662	      114.2377412816	      718.5446952963	       -8.1489347855	        0.0680632663	       -0.0180000000	        0.0849830766	      -67.4165991607	      525.8898155407	       11.4660983901	        0.4696970083	       -0.0180000000	       -0.1179729447	      172.4714057301	      -37.9949283406	      255.1274899999	     -232.4833879682	      -40.3263548168	      614.4588176058	
        5.0800393217	       93.9268013410	      699.6902607212	       -1.1815070979	        0.0583908385	       -0.0180000000	        0.0852373224	      -69.6410393936	      526.4249178688	       23.7839663475	        0.4643616085	       -0.0180000000	       -0.1195907359	      132.7776082591	      -34.2473941254	      193.8199338568	     -231.4372004435	      -55.8731585827	      610.4324742339	
        5.0900391570	       70.9255931784	      671.3239618815	        3.4855958222	        0.0484821380	       -0.0180000000	        0.0884625524	      -74.2961159740	      540.3515598943	       35.5466764479	        0.4563246393	       -0.0180000000	       -0.1214345859	       95.7510735066	      -28.4081700149	      138.2205571810	     -236.3170829493	      -71.6968979384	      622.1887025279	
        5.1000394725	       49.3446314230	      632.7008632541	        4.5277310736	        0.0384158227	       -0.0180000000	        0.1030334636	      -80.1681999732	      570.1645828414	       45.1924953477	        0.4476289884	       -0.0180000000	       -0.1231914186	       63.6864946601	      -21.1386656988	       91.4144290008	     -248.3139747135	      -85.3486577603	      652.5283630774	
        5.1100392279	       31.0723185981	      583.7249717426	        2.0255638817	        0.0283938210	       -0.0180000000	        0.1278688902	      -84.5834710768	      609.2658088375	       50.2377828281	        0.4395471522	       -0.0180000000	       -0.1244975227	       38.3311731256	      -12.9921558471	       55.3092341308	     -264.6546286232	      -92.8278327311	      693.3682382873	
        5.1200397033	       16.2732411377	      525.1346792615	       -1.3586665202	        0.0189594192	       -0.0180000000	        0.1516398534	      -85.6325053794	      648.4176053894	       50.3768718844	        0.4319075683	       -0.0180000000	       -0.1251951963	       20.4695878371	       -5.6406681791	       30.3479448053	     -281.3397148829	      -93.0880957867	      733.4473016298	
        5.1300394586	        5.1463628482	      458.5929485493	       -3.1114623233	        0.0111619496	       -0.0180000000	        0.1652423515	      -82.6619762862	      681.0143347209	       47.8177090389	        0.4236888874	       -0.0180000000	       -0.1254236077	        9.5263443566	       -0.6961828132	       15.2804119879	     -295.3923138406	      -88.4692081218	      764.6908331690	
        5.1400397740	       -1.3070338850	      386.6417925302	       -3.0018352262	        0.0064060587	       -0.0180000000	        0.1677781896	      -76.3844460282	      704.0021112242	       45.2097437186	        0.4142903569	       -0.0180000000	       -0.1255150036	        3.8722477395	        1.5134726960	        7.7761819979	     -305.2966720591	      -82.3644629639	      783.7041326001	
        5.1500395695	       -3.2229330954	      312.5022724285	       -1.5742368950	        0.0059899028	       -0.0180000000	        0.1641526328	      -68.7159845731	      716.8350127281	       44.2286462573	        0.4041117638	       -0.0180000000	       -0.1257685778	        1.6201759264	        1.2920122405	        5.2230785461	     -310.6525064695	      -77.5405091169	      790.6168527466	
        5.1600399250	       -2.3713162621	      239.7383387839	       -0.2436255377	        0.0105968352	       -0.0180000000	        0.1598962081	      -61.6896896025	      720.3296795541	       44.9181815601	        0.3939547393	       -0.0180000000	       -0.1263456124	        1.1825603474	        0.1624467423	        5.0028979138	     -311.7309014458	      -74.9095795797	      787.2099527095	
        5.1700398004	       -0.8308659199	      171.8436547545	        0.2397019652	        0.0200188049	       -0.0180000000	        0.1578983717	      -56.4710030221	      715.9880750683	       46.9185713650	        0.3843945537	       -0.0180000000	       -0.1272247508	        1.4033121379	       -0.6468077498	        5.1359749608	     -309.2052550981	      -74.5691480116	      775.7194110116	
        5.1800400758	        0.0722933803	      111.8313734544	        0.2007021493	        0.0332140725	       -0.0180000000	        0.1581829122	      -53.0143309076	      705.5047945595	       49.7297621959	        0.3755414359	       -0.0180000000	       -0.1283130610	        1.6239004513	       -0.9539659298	        4.7574606887	     -303.8788103616	      -75.8413800658	      758.1914509021	
        5.1900399111	        0.1632321942	       61.9027491324	       -0.2801744419	        0.0486138762	       -0.0180000000	        0.1594053492	      -50.3624276186	      690.3623367329	       52.5705806995	        0.3669800182	       -0.0180000000	       -0.1294586878	        1.6872371079	       -0.5753280742	        3.9770817821	     -296.5156516020	      -77.4447961954	      736.0551374566	
        5.2000402266	       -0.1024882715	       23.2494003194	       -0.5858962985	        0.0645091049	       -0.0180000000	        0.1603582836	      -47.4564130475	      672.0693527681	       54.6387091788	        0.3581767408	       -0.0180000000	       -0.1305069054	        1.6265662585	       -0.1775978644	        3.3278512859	     -287.8977273904	      -78.0531035207	      710.6676002773	
        5.2100400221	       -0.2985449586	       -3.9873386846	       -0.5110920820	        0.0793746561	       -0.0180000000	        0.1606145048	      -43.6425390016	      652.4382881446	       55.0382974147	        0.3489309423	       -0.0180000000	       -0.1314085552	        1.5429725274	       -0.1317339376	        3.1699567557	     -278.8625797194	      -76.4368652208	      683.8990418740	
